<?xml version="1.0" encoding="UTF-8" standalone="no"?>
<svg width="201px" height="200px" viewBox="0 0 201 200" version="1.1" xmlns="http://www.w3.org/2000/svg" xmlns:xlink="http://www.w3.org/1999/xlink">
    <!-- Generator: Sketch 41 (35326) - http://www.bohemiancoding.com/sketch -->
    <title>rocket</title>
    <desc>Created with Sketch.</desc>
    <defs>
        <path d="M199.763977,1.16408089 C198.942261,0.389314665 197.958444,0 196.809076,0 C175.392294,0 157.709017,2.8994714 143.759245,8.7009896 C129.811198,14.5033663 115.122485,25.0427624 99.6952628,40.3191779 C93.1314505,46.937098 85.9093168,54.9032401 78.0323109,64.2167457 L31.3828978,66.6668097 C30.0697042,66.8329231 29.0031117,67.4849285 28.182689,68.6284062 L0.611228209,115.689553 C-0.373882543,117.323215 -0.167806858,118.916958 1.22643742,120.469495 L9.10344335,128.312018 C9.84238419,129.047724 10.7852451,129.414719 11.9346128,129.414719 C12.4273838,129.414719 12.7955608,129.373512 13.0417308,129.291529 L47.0149025,118.872747 L81.6028524,153.310999 L71.1399846,187.132442 C70.7308511,188.604713 71.0589339,189.91044 72.1250954,191.054777 L80.0025324,198.898587 C80.9052991,199.631289 81.8498845,200 82.8337019,200 C83.573505,200 84.2296707,199.835174 84.8034923,199.508957 L132.071132,172.058195 C133.2205,171.241794 133.875804,170.181158 134.040492,168.873713 L136.501329,122.4268 C145.856647,114.582989 153.859109,107.394189 160.504403,100.857394 C175.115083,86.2316959 185.513283,71.5072744 191.706763,56.6794077 C197.90326,41.8506826 201,24.264133 201,3.92233451 C200.998707,2.86041116 200.588711,1.94185176 199.763977,1.16408089 Z M169.980867,47.5504725 C167.68515,49.8365694 164.893643,50.981764 161.61109,50.981764 C158.328537,50.981764 155.540049,49.8378571 153.241313,47.5504725 C150.945596,45.2626586 149.794935,42.4846603 149.794935,39.2160482 C149.794935,35.949153 150.944302,33.1707254 153.241313,30.8829116 C155.538324,28.5963854 158.328537,27.4520493 161.61109,27.4520493 C164.893643,27.4520493 167.683856,28.5950977 169.980867,30.8829116 C172.277878,33.1707254 173.427246,35.949153 173.427246,39.2160482 C173.427246,42.4850895 172.280896,45.2609417 169.980867,47.5504725 Z" id="path-1"></path>
    </defs>
    <g id="Page-1" stroke="none" stroke-width="1" fill="none" fill-rule="evenodd">
        <g id="Product" transform="translate(-989.000000, -999.000000)">
            <g id="advantages" transform="translate(0.000000, 948.000000)">
                <g id="dynamic" transform="translate(719.000000, 0.000000)">
                    <g id="rocket" transform="translate(270.000000, 51.000000)">
                        <g id="tint/green">
                            <g>
                                <mask id="mask-2" fill="white">
                                    <use xlink:href="#path-1"></use>
                                </mask>
                                <use id="Mask" fill="#FFFFFF" xlink:href="#path-1"></use>
                                <g mask="url(#mask-2)" id="Rectangle-3" fill="#A6C842">
                                    <rect x="0" y="0" width="201" height="200"></rect>
                                </g>
                            </g>
                        </g>
                    </g>
                </g>
            </g>
        </g>
    </g>
</svg>