<?xml version="1.0" encoding="UTF-8" standalone="no"?>
<svg width="184px" height="200px" viewBox="0 0 184 200" version="1.1" xmlns="http://www.w3.org/2000/svg" xmlns:xlink="http://www.w3.org/1999/xlink">
    <!-- Generator: Sketch 41 (35326) - http://www.bohemiancoding.com/sketch -->
    <title>scalable</title>
    <desc>Created with Sketch.</desc>
    <defs>
        <path d="M147.076923,76.0736196 L184,76.0736196 L184,200 L147.076923,200 L147.076923,76.0736196 Z M184,1.42108547e-14 L184,48.7730061 L165.538462,48.7730061 L165.538462,34.6625767 L112.615385,90.1840491 L71.3846154,90.1840491 L15.0769231,145.092025 L0,129.754601 L62.4615385,68.7116564 L103.384615,68.7116564 L151.076923,18.404908 L135.076923,18.404908 L135.076923,1.42108547e-14 L184,1.42108547e-14 Z M80.6153846,115.337423 L117.538462,115.337423 L117.538462,200 L80.6153846,200 L80.6153846,115.337423 Z M14.1538462,163.803681 L51.0769231,163.803681 L51.0769231,200 L14.1538462,200 L14.1538462,163.803681 Z" id="path-1"></path>
    </defs>
    <g id="Page-1" stroke="none" stroke-width="1" fill="none" fill-rule="evenodd">
        <g id="Product" transform="translate(-303.000000, -1416.000000)">
            <g id="advantages" transform="translate(0.000000, 948.000000)">
                <g id="scalable" transform="translate(0.000000, 420.000000)">
                    <g transform="translate(303.000000, 48.000000)" id="tint/green">
                        <g>
                            <g>
                                <mask id="mask-2" fill="white">
                                    <use xlink:href="#path-1"></use>
                                </mask>
                                <use id="Mask" fill="#C69F9F" xlink:href="#path-1"></use>
                                <g mask="url(#mask-2)" id="Rectangle-3" fill="#A6C842">
                                    <rect x="0" y="0" width="201" height="200"></rect>
                                </g>
                            </g>
                        </g>
                    </g>
                </g>
            </g>
        </g>
    </g>
</svg>