<?xml version="1.0" encoding="UTF-8" standalone="no"?>
<svg width="220px" height="200px" viewBox="0 0 220 200" version="1.1" xmlns="http://www.w3.org/2000/svg" xmlns:xlink="http://www.w3.org/1999/xlink">
    <!-- Generator: Sketch 41 (35326) - http://www.bohemiancoding.com/sketch -->
    <title>clock</title>
    <desc>Created with Sketch.</desc>
    <defs>
        <path d="M19.6169718,101.602959 L4.75543693,101.602959 C0.79236097,101.602959 -1.43686926,96.9173859 1.04005322,93.7114673 L3.76466794,89.7657213 C10.9477431,79.9013564 18.873895,70.2836005 27.2954315,61.6522811 L27.5431237,61.405672 C30.0200462,58.1997534 34.9738911,58.1997534 37.4508136,61.405672 C46.1200423,70.2836005 54.0461942,79.6547472 61.2292694,89.7657213 L63.9538841,93.4648582 C66.4308066,96.6707768 64.2015763,101.35635 60.2385004,101.35635 L45.6246578,101.35635 C46.3677345,141.307028 79.3108034,173.366215 119.68464,173.366215 C160.553861,173.366215 193.744622,140.320592 193.744622,99.6300863 C193.744622,58.9395808 160.553861,26.3871763 119.68464,26.3871763 C106.061566,26.3871763 92.6861848,30.0863132 81.2923414,36.9913687 C75.1000352,40.6905055 66.926191,38.7176326 63.2108073,32.5524044 C59.4954236,26.3871763 61.4769616,18.2490752 67.6692678,14.5499383 C83.2738794,5.17879162 101.355413,0 119.68464,0 C174.920011,0 220,44.8828607 220,99.8766954 C220,154.87053 175.167703,200 119.68464,200 C64.9446531,200 20.3600485,156.103576 19.6169718,101.602959 Z M124.638485,45.3760789 L124.638485,82.3674476 C132.564637,84.5869297 138.261558,91.7385943 138.261558,100.369914 C138.261558,103.822441 137.270789,106.781751 135.784636,109.74106 L154.113862,127.990136 C156.0954,129.963009 156.0954,132.922318 154.113862,134.895191 C152.132324,136.868064 149.160017,136.868064 147.178479,134.895191 L128.849253,116.646116 C126.124638,118.125771 122.904639,119.112207 119.436948,119.112207 C109.033873,119.112207 100.860029,110.727497 100.860029,100.616523 C100.860029,91.9852035 106.804643,84.8335388 114.730795,82.6140567 L114.730795,45.3760789 C114.730795,42.6633785 116.960025,40.4438964 119.68464,40.4438964 C122.409254,40.4438964 124.638485,42.6633785 124.638485,45.3760789 Z M119.68464,91.2453761 C114.730795,91.2453761 110.767719,95.1911221 110.767719,100.123305 C110.767719,105.055487 114.730795,109.001233 119.68464,109.001233 C122.161562,109.001233 124.390792,108.014797 125.876946,106.535142 L125.876946,106.535142 L125.876946,106.535142 C127.363099,104.808878 128.353868,102.836005 128.353868,100.369914 C128.601561,95.4377312 124.638485,91.2453761 119.68464,91.2453761 Z" id="path-1"></path>
    </defs>
    <g id="Page-1" stroke="none" stroke-width="1" fill="none" fill-rule="evenodd">
        <g id="Product" transform="translate(-285.000000, -999.000000)">
            <g id="advantages" transform="translate(0.000000, 948.000000)">
                <g id="realtime">
                    <g id="clock" transform="translate(285.000000, 51.000000)">
                        <g id="Rectangle-3">
                            <g>
                                <mask id="mask-2" fill="white">
                                    <use xlink:href="#path-1"></use>
                                </mask>
                                <use id="Mask" fill="#A6C842" xlink:href="#path-1"></use>
                                <g id="tint/green" mask="url(#mask-2)" fill="#A6C842">
                                    <rect id="Rectangle-3" x="0" y="0" width="201" height="200"></rect>
                                </g>
                            </g>
                        </g>
                    </g>
                </g>
            </g>
        </g>
    </g>
</svg>