<?xml version="1.0" encoding="UTF-8" standalone="no"?>
<svg width="201px" height="200px" viewBox="0 0 201 200" version="1.1" xmlns="http://www.w3.org/2000/svg" xmlns:xlink="http://www.w3.org/1999/xlink">
    <!-- Generator: Sketch 41 (35326) - http://www.bohemiancoding.com/sketch -->
    <title>Shape</title>
    <desc>Created with Sketch.</desc>
    <defs></defs>
    <g id="Page-1" stroke="none" stroke-width="1" fill="none" fill-rule="evenodd">
        <g id="Product" transform="translate(-989.000000, -999.000000)" fill="#000000">
            <g id="advantages" transform="translate(0.000000, 948.000000)">
                <g id="dynamic" transform="translate(719.000000, 0.000000)">
                    <path d="M468.889473,52.1640809 C468.071354,51.3893147 467.091843,51 465.947507,51 C444.624481,51 427.018616,53.8994714 413.129912,59.7009896 C399.242925,65.5033663 384.618515,76.0427624 369.258828,91.3191779 C362.72375,97.937098 355.533233,105.90324 347.69071,115.216746 L301.245513,117.66681 C299.938068,117.832923 298.876145,118.484929 298.059314,119.628406 L270.608552,166.689553 C269.627754,168.323215 269.832928,169.916958 271.221068,171.469495 L279.063591,179.312018 C279.799297,180.047724 280.738031,180.414719 281.882367,180.414719 C282.372981,180.414719 282.739546,180.373512 282.984638,180.291529 L316.809086,169.872747 L351.245621,204.310999 L340.828556,238.132442 C340.421214,239.604713 340.74786,240.91044 341.809354,242.054777 L349.652306,249.898587 C350.551121,250.631289 351.491571,251 352.471082,251 C353.207646,251 353.86094,250.835174 354.432249,250.508957 L401.492966,223.058195 C402.637302,222.241794 403.289737,221.181158 403.453704,219.873713 L405.903768,173.4268 C415.218133,165.582989 423.185562,158.394189 429.801765,151.857394 C444.348484,137.231696 454.701164,122.507274 460.86753,107.679408 C467.036902,92.8506826 470.120085,75.264133 470.120085,54.9223345 C470.118797,53.8604112 469.710596,52.9418518 468.889473,52.1640809 Z M439.236744,98.5504725 C436.951076,100.836569 434.17179,101.981764 430.903607,101.981764 C427.635425,101.981764 424.859143,100.837857 422.570471,98.5504725 C420.284803,96.2626586 419.139179,93.4846603 419.139179,90.2160482 C419.139179,86.949153 420.283515,84.1707254 422.570471,81.8829116 C424.857426,79.5963854 427.635425,78.4520493 430.903607,78.4520493 C434.17179,78.4520493 436.949789,79.5950977 439.236744,81.8829116 C441.523699,84.1707254 442.668036,86.949153 442.668036,90.2160482 C442.668036,93.4850895 441.526704,96.2609417 439.236744,98.5504725 Z" id="Shape"></path>
                </g>
            </g>
        </g>
    </g>
</svg>