<?xml version="1.0" encoding="UTF-8" standalone="no"?>
<svg width="200px" height="200px" viewBox="0 0 200 200" version="1.1" xmlns="http://www.w3.org/2000/svg" xmlns:xlink="http://www.w3.org/1999/xlink">
    <!-- Generator: Sketch 41 (35326) - http://www.bohemiancoding.com/sketch -->
    <title>flexible</title>
    <desc>Created with Sketch.</desc>
    <defs></defs>
    <g id="Page-1" stroke="none" stroke-width="1" fill="none" fill-rule="evenodd">
        <g id="Product" transform="translate(-918.000000, -1416.000000)" fill="#FFFFFF">
            <g id="advantages" transform="translate(0.000000, 948.000000)">
                <g id="flexible" transform="translate(719.000000, 420.000000)">
                    <g transform="translate(199.000000, 48.000000)" id="Shape">
                        <path d="M200,50 L187.5,50 L187.5,12.5 C187.5,5.59 181.934,0 175,0 C168.116,0 162.5,5.59 162.5,12.5 L162.5,50 L150,50 L150,75 L162.5,75 L162.5,187.5 C162.5,194.41 168.116,200 175,200 C181.934,200 187.5,194.41 187.5,187.5 L187.5,75 L200,75 L200,50 Z"></path>
                        <path d="M125,125 L112.5,125 L112.5,12.5 C112.5,5.59 106.934,0 100,0 C93.116,0 87.5,5.59 87.5,12.5 L87.5,125 L75,125 L75,150 L87.5,150 L87.5,187.5 C87.5,194.41 93.116,200 100,200 C106.934,200 112.5,194.41 112.5,187.5 L112.5,150 L125,150 L125,125 Z"></path>
                        <path d="M50,75 L37.5,75 L37.5,12.5 C37.5,5.59 31.934,0 25,0 C18.116,0 12.5,5.59 12.5,12.5 L12.5,75 L0,75 L0,100 L12.5,100 L12.5,187.5 C12.5,194.41 18.116,200 25,200 C31.934,200 37.5,194.41 37.5,187.5 L37.5,100 L50,100 L50,75 Z"></path>
                    </g>
                </g>
            </g>
        </g>
    </g>
</svg>