<?xml version="1.0" encoding="UTF-8" standalone="no"?>
<svg width="220px" height="200px" viewBox="0 0 220 200" version="1.1" xmlns="http://www.w3.org/2000/svg" xmlns:xlink="http://www.w3.org/1999/xlink">
    <!-- Generator: Sketch 41 (35326) - http://www.bohemiancoding.com/sketch -->
    <title>Shape</title>
    <desc>Created with Sketch.</desc>
    <defs></defs>
    <g id="Page-1" stroke="none" stroke-width="1" fill="none" fill-rule="evenodd">
        <g id="Product" transform="translate(-285.000000, -999.000000)" fill="#FFFFFF">
            <g id="advantages" transform="translate(0.000000, 948.000000)">
                <g id="realtime">
                    <g transform="translate(285.000000, 51.000000)" id="Shape">
                        <path d="M20.2525766,101.865351 L5.49548655,101.865351 C1.56026255,101.865351 -0.653300955,97.1922729 1.80621405,93.9949034 L4.51168055,90.0596794 C11.6442741,80.2216194 19.5147221,70.6295109 27.8770731,62.0212084 L28.1230246,61.7752569 C30.5825396,58.5778874 35.5015696,58.5778874 37.9610846,61.7752569 C46.5693871,70.6295109 54.4398351,79.9756679 61.5724286,90.0596794 L64.2778951,93.7489519 C66.7374101,96.9463214 64.5238466,101.6194 60.5886226,101.6194 L46.0774841,101.6194 C46.8153386,141.463543 79.5268881,173.437238 119.616983,173.437238 C160.19898,173.437238 193.156481,140.479737 193.156481,99.8977394 C193.156481,59.3157419 160.19898,26.8501439 119.616983,26.8501439 C106.08965,26.8501439 92.8082691,30.5394164 81.4945001,37.4260584 C75.3457126,41.1153309 67.2293131,39.1477189 63.5400406,32.9989314 C59.8507681,26.8501439 61.8183801,18.7337443 67.9671676,15.0444718 C83.4621121,5.69831484 101.416572,0.533333333 119.616983,0.533333333 C174.464167,0.533333333 219.22734,45.2965064 219.22734,100.143691 C219.22734,154.990875 174.710119,200 119.616983,200 C65.2617011,200 20.9904311,156.220633 20.2525766,101.865351 Z M124.536013,45.7884094 L124.536013,82.6811344 C132.406461,84.8946979 138.063345,92.0272914 138.063345,100.635594 C138.063345,104.078915 137.079539,107.030333 135.60383,109.981751 L153.804241,128.182162 C155.771853,130.149774 155.771853,133.101192 153.804241,135.068804 C151.836629,137.036416 148.885211,137.036416 146.917599,135.068804 L128.717188,116.868393 C126.011722,118.344102 122.814352,119.327908 119.371031,119.327908 C109.041068,119.327908 100.924669,110.965557 100.924669,100.881545 C100.924669,92.2732429 106.827505,85.1406494 114.697953,82.9270859 L114.697953,45.7884094 C114.697953,43.0829429 116.911516,40.8693794 119.616983,40.8693794 C122.322449,40.8693794 124.536013,43.0829429 124.536013,45.7884094 Z M119.616983,91.5353884 C114.697953,91.5353884 110.762729,95.4706124 110.762729,100.389642 C110.762729,105.308672 114.697953,109.243896 119.616983,109.243896 C122.076498,109.243896 124.290061,108.26009 125.76577,106.784381 L125.76577,106.784381 L125.76577,106.784381 C127.241479,105.062721 128.225285,103.095109 128.225285,100.635594 C128.471237,95.7165639 124.536013,91.5353884 119.616983,91.5353884 Z"></path>
                    </g>
                </g>
            </g>
        </g>
    </g>
</svg>